<?xml version="1.0" encoding="UTF-8" standalone="no"?>
<!DOCTYPE svg PUBLIC "-//W3C//DTD SVG 1.1//EN" "http://www.w3.org/Graphics/SVG/1.1/DTD/svg11.dtd">
<svg width="100%" height="100%" viewBox="0 0 119 122" version="1.1" xmlns="http://www.w3.org/2000/svg" xmlns:xlink="http://www.w3.org/1999/xlink" xml:space="preserve" xmlns:serif="http://www.serif.com/" style="fill-rule:evenodd;clip-rule:evenodd;stroke-linejoin:round;stroke-miterlimit:2;">
    <g transform="matrix(1,0,0,1,-40.8205,-38.2765)">
        <g>
            <path d="M99.943,124.186C82.089,124.186 67.711,103.833 67.711,86.982L67.758,71.266C67.758,52.482 80.693,39.853 99.944,39.853C119.195,39.853 132.13,52.482 132.13,71.278L132.177,86.97C132.176,103.833 117.798,124.186 99.943,124.186ZM99.943,47.853C82.111,47.853 75.757,59.954 75.757,71.278L75.71,86.994C75.71,102.711 89.034,116.186 99.942,116.186C110.85,116.186 124.174,102.71 124.174,86.982L124.127,71.29C124.129,59.953 117.775,47.853 99.943,47.853Z" style="fill-rule:nonzero;"/>
        </g>
        <path d="M155.443,159.884L44.557,159.884C43.538,159.884 42.564,159.468 41.859,158.733C41.154,157.997 40.78,157.005 40.824,155.988C41.272,145.581 46.915,125.9 65.065,125.9C70.966,125.9 75.271,124.562 77.861,121.923C80.385,119.351 80.443,116.285 80.442,116.256C80.404,114.193 82.046,112.488 84.108,112.449L84.179,112.449C86.21,112.449 87.875,114.076 87.914,116.115C87.926,116.741 87.893,122.369 83.193,127.157C79.146,131.281 73.047,133.372 65.064,133.372C53.487,133.372 49.861,145.865 48.755,152.411L151.268,152.411C150.202,145.85 146.635,133.372 134.935,133.372C126.953,133.372 120.853,131.281 116.806,127.157C112.107,122.369 112.074,116.741 112.085,116.115C112.124,114.076 113.789,112.449 115.82,112.449L115.891,112.449C117.953,112.488 119.595,114.192 119.557,116.256C119.566,117.198 120.076,125.9 134.934,125.9C153.086,125.9 158.728,145.581 159.175,155.988C159.218,157.006 158.845,157.998 158.14,158.733C157.435,159.468 156.462,159.884 155.443,159.884Z" style="fill-rule:nonzero;"/>
        <g transform="matrix(1,0,0,1,38.7623,48.4189)">
            <rect x="17.858" y="20.889" width="86.758" height="20.485"/>
        </g>
    </g>
</svg>
